<?xml version="1.0" encoding="UTF-8" standalone="no"?>
<!-- Created with Inkscape (http://www.inkscape.org/) -->

<svg
   xmlns:dc="http://purl.org/dc/elements/1.1/"
   xmlns:cc="http://creativecommons.org/ns#"
   xmlns:rdf="http://www.w3.org/1999/02/22-rdf-syntax-ns#"
   xmlns:svg="http://www.w3.org/2000/svg"
   xmlns="http://www.w3.org/2000/svg"
   xmlns:sodipodi="http://sodipodi.sourceforge.net/DTD/sodipodi-0.dtd"
   xmlns:inkscape="http://www.inkscape.org/namespaces/inkscape"
   width="163.64746mm"
   height="30.321249mm"
   viewBox="0 0 163.64746 30.321249"
   version="1.1"
   id="svg8"
   inkscape:version="0.92.3 (2405546, 2018-03-11)"
   sodipodi:docname="drawing.svg">
  <defs
     id="defs2" />
  <sodipodi:namedview
     id="base"
     pagecolor="#ffffff"
     bordercolor="#666666"
     borderopacity="1.0"
     inkscape:pageopacity="0.0"
     inkscape:pageshadow="2"
     inkscape:zoom="0.7"
     inkscape:cx="609.77751"
     inkscape:cy="-62.546712"
     inkscape:document-units="mm"
     inkscape:current-layer="layer1"
     showgrid="false"
     inkscape:window-width="2030"
     inkscape:window-height="871"
     inkscape:window-x="176"
     inkscape:window-y="321"
     inkscape:window-maximized="0"
     fit-margin-top="0"
     fit-margin-left="0"
     fit-margin-right="0"
     fit-margin-bottom="0" />
  <metadata
     id="metadata5">
    <rdf:RDF>
      <cc:Work
         rdf:about="">
        <dc:format>image/svg+xml</dc:format>
        <dc:type
           rdf:resource="http://purl.org/dc/dcmitype/StillImage" />
        <dc:title></dc:title>
      </cc:Work>
    </rdf:RDF>
  </metadata>
  <g
     inkscape:label="Layer 1"
     inkscape:groupmode="layer"
     id="layer1"
     transform="translate(-0.14442774,-0.00535417)">
    <g
       id="g297"
       transform="matrix(0.26458333,0,0,0.26458333,0.09151107,-0.0475625)">
      <path
         id="path283"
         d="m 114.8,57.5 c 0,31.6 -25.7,57.3 -57.3,57.3 C 25.9,114.8 0.2,89.1 0.2,57.5 0.2,25.9 25.9,0.2 57.5,0.2 c 31.6,0 57.3,25.7 57.3,57.3 z"
         inkscape:connector-curvature="0" />
      <path
         id="path285"
         d="m 82.5,21.4 c -5.8,0.2 -10.9,3.4 -14.7,7.8 -4.2,4.9 -7,10.6 -9,16.5 -3.6,-2.9 -6.4,-6.8 -12.1,-8.4 -4.5,-1.3 -9.1,-0.8 -13.4,2.5 -2,1.5 -3.4,3.8 -4.1,6 -1.7,5.6 1.8,10.6 3.4,12.4 l 3.5,3.8 c 0.7,0.7 2.5,2.7 1.6,5.4 -0.9,3 -4.5,5 -8.3,3.8 -1.7,-0.5 -4,-1.7 -3.5,-3.5 0.2,-0.7 0.7,-1.3 1,-1.9 0.2,-0.5 0.4,-0.9 0.4,-1.2 0.7,-2.2 -0.2,-5.1 -2.6,-5.8 -2.2,-0.7 -4.5,-0.1 -5.4,2.7 -1,3.2 0.6,9.1 8.9,11.7 9.7,3 18,-2.3 19.1,-9.2 0.7,-4.3 -1.2,-7.6 -4.8,-11.7 l -2.9,-3.2 c -1.8,-1.8 -2.4,-4.8 -0.5,-7.1 1.5,-2 3.7,-2.8 7.3,-1.8 5.3,1.4 7.6,5.1 11.5,8 -1.6,5.3 -2.7,10.6 -3.6,15.4 l -0.6,3.6 c -2.8,14.7 -4.9,22.7 -10.5,27.3 -1.1,0.8 -2.7,2 -5.1,2.1 -1.3,0 -1.7,-0.8 -1.7,-1.2 0,-0.9 0.7,-1.3 1.2,-1.7 0.7,-0.4 1.9,-1.1 1.8,-3.2 -0.1,-2.5 -2.2,-4.7 -5.2,-4.6 -2.3,0.1 -5.7,2.2 -5.6,6.1 0.1,4.1 3.9,7.1 9.6,6.9 3,-0.1 9.8,-1.3 16.5,-9.3 7.8,-9.1 10,-19.6 11.6,-27.3 l 1.8,-10.1 c 1,0.1 2.1,0.2 3.3,0.2 9.7,0.2 14.6,-4.8 14.6,-8.5 0,-2.2 -1.5,-4.4 -3.6,-4.3 -1.5,0 -3.4,1 -3.8,3.1 -0.4,2 3.1,3.9 0.3,5.7 -2,1.3 -5.5,2.2 -10.4,1.4 l 0.9,-5 c 1.8,-9.4 4.1,-21 12.7,-21.3 0.6,0 2.9,0 3,1.5 0,0.5 -0.1,0.6 -0.7,1.8 -0.6,0.9 -0.8,1.7 -0.8,2.6 0.1,2.4 1.9,4 4.6,3.9 3.5,-0.1 4.6,-3.6 4.5,-5.3 0.1,-4.2 -4.3,-6.8 -10.2,-6.6 z"
         inkscape:connector-curvature="0"
         style="fill:#ffffff" />
    </g>
    <flowRoot
       xml:space="preserve"
       id="flowRoot299"
       style="font-style:normal;font-variant:normal;font-weight:normal;font-stretch:normal;font-size:40px;line-height:1.25;font-family:'Open Sans';-inkscape-font-specification:'Open Sans';letter-spacing:0px;word-spacing:0px;fill:#000000;fill-opacity:1;stroke:none"
       transform="scale(0.26458333)"><flowRegion
         id="flowRegion301"><rect
           id="rect303"
           width="176.27162"
           height="62.629459"
           x="130.81476"
           y="45.191994" /></flowRegion><flowPara
         id="flowPara305"></flowPara></flowRoot>    <text
       xml:space="preserve"
       style="font-style:normal;font-variant:normal;font-weight:normal;font-stretch:normal;font-size:19.75555611px;line-height:1.25;font-family:'Open Sans';-inkscape-font-specification:'Open Sans';letter-spacing:0px;word-spacing:0px;fill:#000000;fill-opacity:1;stroke:none;stroke-width:0.26458332"
       x="33.00779"
       y="22.915098"
       id="text309"><tspan
         sodipodi:role="line"
         id="tspan307"
         x="33.00779"
         y="22.915098"
         style="font-style:normal;font-variant:normal;font-weight:normal;font-stretch:normal;font-size:19.75555611px;font-family:Arial;-inkscape-font-specification:Arial;stroke-width:0.26458332"><tspan
   style="font-weight:bold;font-size:19.75555611px"
   id="tspan321">Monolith</tspan> <tspan
   style="font-weight:bold;font-size:19.75555611px"
   id="tspan311">CMS</tspan></tspan></text>
  </g>
</svg>
