<svg width="165" height="26" viewBox="0 0 165 26" xmlns="http://www.w3.org/2000/svg"><path d="M13.609 6.514a4.605 4.605 0 0 1-.432-1.953C13.177 2.047 15.185 0 17.652 0c1.733 0 3.238 1.009 3.98 2.48a3.785 3.785 0 0 1 2.373-.827c2.056 0 3.73 1.622 3.73 3.616 0 .684-.197 1.324-.538 1.87a6.062 6.062 0 0 1 .162 1.562l4.587-2.438V9.44l3.065-.454 1.53 11.953.519.752s.978-1.438 2.274-.525c1.296.913.546 2.18.546 2.18s-.424.31-1.868.31c-1.879 0-1.841-.554-1.974-.938-.067-.194-.051-.439.004-.685L34.462 9.7l-2.516.373v8.877l.092.447s1.295-1.814 2.591-.902c1.296.912.542 2.183.542 2.183s-.424.31-1.868.311c-1.879 0-1.968-.367-2.1-.75-.088-.256-.014-.625.108-.978v-9.093l-4.346.644a5.446 5.446 0 0 1-.17.396l3.736 1.07-.28 11.582.04.424s1.17-1.752 2.466-.837c1.297.915.546 2.18.546 2.18s-.424.371-1.868.373c-1.879 0-1.904-.596-1.911-1.002-.008-.5.03-.864.09-1.13l.27-11.122-3.402-.975c-.266.418-.592.8-.975 1.14l1.77.417-1.995 5.91c.226-.262.735-.683 1.413-.205.931.657.393 1.566.393 1.566s-.306.283-1.343.314c-1.037.03-1.283 0-1.478-.22-.194-.218.44-1.862.44-1.862l.03.039 1.719-5.091-1.587-.375c-1.228.822-2.858 1.27-4.647 1.27-1.902 0-3.54-.486-4.758-1.41l-1.824.432 1.72 5.09.028-.037s.635 1.644.44 1.863c-.194.219-.44.25-1.477.219-1.037-.031-1.343-.314-1.343-.314s-.54-.91.392-1.566c.68-.478 1.188-.059 1.414.204l-1.995-5.91 2.063-.487a5.273 5.273 0 0 1-.887-1.18l-3.784 1.084.27 11.12c.061.266.1.632.091 1.134-.007.406-.032 1.002-1.911 1.002-1.443-.002-1.868-.373-1.868-.373s-.751-1.265.546-2.18c1.297-.915 2.465.837 2.465.837l.042-.424-.28-11.583 4.155-1.19a5.582 5.582 0 0 1-.076-.2l-4.86-.72v9.093c.121.352.195.72.108.974-.132.384-.222.75-2.1.75-1.444 0-1.869-.31-1.869-.31s-.753-1.268.543-2.18c1.296-.912 2.592.903 2.592.903l.091-.45V9.99l-2.516-.373-1.58 12.332c.055.247.071.491.004.686-.133.384-.095.939-1.974.939-1.443-.002-1.868-.311-1.868-.311s-.75-1.265.546-2.18c1.296-.915 2.274.524 2.274.524l.518-.75L5.085 8.902l3.065.455V6.179l5.13 2.727a7.544 7.544 0 0 1-.007-.329c0-.766.113-1.455.336-2.063zm140.38 3.25v8.262c0 2.108-3.325 2.108-3.325 0V10.92c.038-.914.567-1.323 1.17-1.977l1.929-1.977c.736-.82 1.87-.82 2.606 0l1.435 1.506 1.435-1.506c.794-.82 1.927-.82 2.663 0l1.927 1.977c.586.652 1.076 1.063 1.171 1.977v7.105c0 2.108-3.325 2.108-3.325 0V9.765h-2.208v8.26c0 2.164-3.305 2.164-3.305 0v-8.26h-2.174zm-38.366-.056v8.262c0 2.2-3.305 2.2-3.305 0V9.708H110.9c-2.153 0-2.153-3.245 0-3.245h6.139c2.135 0 2.135 3.245 0 3.245h-1.417zm7.232 5.448v2.851c0 2.127-3.305 2.127-3.305 0V9.223v-.01c0-1.507 1.254-2.747 2.78-2.75h4.212c.9-.01 1.65.714 1.662 1.603-.015.898-.754 1.634-1.662 1.657l-3.687.004v2.164h2.967c.9.007 1.637.735 1.644 1.623-.017.9-.766 1.634-1.678 1.642h-2.933zm-70.94-8.227l2.476 1.996c.718.602 1.115 1.08 1.171 1.995V18c0 .874-.728 1.592-1.612 1.592H53.907c-.893 0-1.628-.722-1.633-1.604v-1.585L48.987 13.4v4.588c-.002.88-.737 1.604-1.629 1.604h-.013c-.902.01-1.652-.714-1.663-1.604v-7.07c.076-.913.51-1.398 1.21-1.994l2.417-1.996c.964-.745 1.662-.783 2.607 0zm53.639 0l2.475 1.996c.719.602 1.115 1.08 1.171 1.995V18c0 .874-.727 1.592-1.612 1.592h-.041c-.892 0-1.629-.722-1.633-1.604v-1.585l-3.287-3.003v4.588c-.027.877-.765 1.583-1.652 1.583-.888 0-1.626-.706-1.653-1.583v-7.068c.076-.914.51-1.399 1.21-1.995l2.415-1.997c.964-.745 1.663-.783 2.607 0zM68.219 18.104V12.08c0-.82.699-1.54 1.663-1.54.964 0 1.677.654 1.677 1.457v6.106c0 .802-.736 1.474-1.677 1.474-.908.001-1.663-.672-1.663-1.474zm79.687-3.902c1.171.71 1.586 1.604 1.586 2.779v.951c0 .875-.729 1.595-1.615 1.595s-1.615-.72-1.615-1.595v-.912l-3.229-3.88V17.946c0 .88-.732 1.606-1.624 1.608h-.014c-.903 0-1.646-.732-1.649-1.623V8.104v-.01c0-.895.747-1.631 1.654-1.631H145.092a2.82 2.82 0 0 1 1.983.802l1.606 1.53c.566.52.888 1.251.887 2.015v.727c0 1.29-.603 2.144-1.662 2.665zM83.094 16.31v1.566c0 .914-.68 1.657-1.606 1.657-.914-.008-1.662-.754-1.662-1.657V9.212c.006-1.514 1.264-2.758 2.797-2.767h2.512a2.777 2.777 0 0 1 1.946.765L88.895 9c1.19 1.119.982 3.879-.17 4.98l-1.644 1.547a2.64 2.64 0 0 1-1.946.783h-2.04zm-22.6 0v1.566c0 .914-.681 1.657-1.607 1.657-.914-.008-1.663-.754-1.662-1.657V9.212c.005-1.512 1.261-2.757 2.794-2.767h2.512a2.778 2.778 0 0 1 1.947.765L66.291 9c1.19 1.119.983 3.879-.17 4.98l-1.643 1.547a2.64 2.64 0 0 1-1.946.783h-2.039zm36.33 3.21h-3.302c-1.567-.004-2.859-1.27-2.872-2.818v-8.71c.028-.882.768-1.596 1.662-1.603h.028c.896 0 1.636.72 1.65 1.604v8.281c1.662 0 1.19-.037 2.834-.037 2.172 0 2.172 3.282 0 3.282zm39.106-.019h-3.948c-1.399 0-2.796-1.417-2.796-2.76V9.242c0-1.623 1.36-2.76 2.872-2.76h3.778c1.53.01 2.786 1.25 2.796 2.76v7.5c0 1.342-1.304 2.76-2.702 2.76zm-3.437-3.228h2.834V9.747h-2.834v6.526zm-83.506-3.114h3.287V9.765h-3.287v3.394zm53.64 0h3.285V9.765h-3.285v3.394zm-16.359-.112v-3.34l-3.135-.043v3.382l3.135.001zm-22.601 0v-3.34l-3.136-.043v3.382l3.136.001zm79.359-3.321v3.135h3.23V9.727l-3.23-.001zM27.306 9.44c-.03.242-.074.478-.132.707l4.137-.614V7.312l-4.005 2.13zm-18.521.01l4.662.691a6.314 6.314 0 0 1-.094-.485L8.785 7.23V9.45zm62.706.34h-3.203V6.478h3.203V9.79zM17.652.438c-2.1 0-3.831 1.652-4.014 3.753v.001l-.002.026v.002l-.002.024v.004l-.002.022v.006l-.002.02v.008l-.001.018-.001.01v.017l-.001.01-.001.016v.011l-.001.015v.013l-.001.014v.026l-.001.014V4.508l-.001.018v.131l.002.04v.024l.002.02v.004l.002.04v.007l.002.04v.006l.004.04.002.026.001.016v.006l.004.039v.007l.005.04v.004l.002.018.003.02v.004l.005.04v.007l.006.038v.007l.007.04.003.024.003.016v.005l.007.039v.003l.001.004.007.038v.002l.001.003.003.017.004.021v.003l.008.038.001.004v.003l.009.038v.002l.001.004.009.039.005.023.004.017v.003l.001.001.01.038v.007l.01.037v.002l.002.003.004.016.006.022v.001l.01.038.002.004v.002l.01.037.002.003v.003l.012.038.007.022.005.017.001.003v.001l.012.037.001.003.001.003.012.036.001.002.001.003c.549 1.61 2.048 2.769 3.807 2.769a3.993 3.993 0 0 0 3.153-1.558 3.512 3.512 0 0 1 .155-3.944l.009-.011.014-.02.009-.011.019-.025.004-.006.023-.03.007-.009.017-.02.008-.01.02-.024.004-.006.025-.03.006-.006.02-.023.007-.009.02-.023.005-.006.027-.03.026-.028.006-.007.023-.024.004-.005.028-.028C20.642 1.4 19.255.439 17.652.439zm6.316 1.653h-.042l-.002.001h-.034l-.003.001h-.002l-.034.001h-.006a2.84 2.84 0 0 0-.034.002h-.004l-.035.003h-.003l-.017.001-.02.002a4.062 4.062 0 0 0-.036.003h-.004a3.705 3.705 0 0 0-.034.004h-.005a3.533 3.533 0 0 0-.033.004h-.005a3.366 3.366 0 0 0-.034.004h-.005a3.427 3.427 0 0 0-.033.005h-.005a3.809 3.809 0 0 0-.034.006h-.002l-.017.003-.018.003h-.001a3.797 3.797 0 0 0-.035.006h-.004a3.513 3.513 0 0 0-.033.006h-.003l-.002.001-.033.006h-.002l-.003.001-.032.007h-.005l-.033.008h-.004a3.527 3.527 0 0 0-.034.008l-.019.005-.008.002-.01.002-.011.003-.01.002-.007.002-.008.002-.014.003-.01.003-.006.002-.006.001-.016.005-.012.003h-.004l-.005.002-.017.005-.013.004h-.002l-.003.001-.022.007-.011.003h-.002l-.001.001-.032.01h-.004v.001a3.811 3.811 0 0 0-.037.012l-.012.004-.022.007-.002.001h-.003l-.012.005-.018.006-.004.002-.004.001-.012.004-.015.006-.005.002-.005.002-.011.004-.013.005-.007.002-.007.003-.01.004-.01.004-.01.003-.007.003-.009.004-.009.003-.01.004-.009.004-.007.003-.008.003-.011.005-.01.004-.007.003-.006.003-.013.005-.011.005-.005.002-.005.002-.014.007-.012.005-.004.002-.003.001-.017.008-.012.006h-.003l-.002.002-.02.01-.011.005h-.001l-.034.017-.012.006-.02.01h-.002l-.002.002-.013.006-.016.009-.003.001-.003.002-.012.007-.014.007-.004.002-.005.003-.011.006-.012.006-.006.003-.005.004-.01.005-.011.006-.007.004-.007.004-.009.005-.009.005-.007.005-.009.005-.008.004-.007.005-.009.005-.01.006-.006.004-.006.003-.01.007-.01.006-.006.004-.005.003-.011.007-.012.007-.004.003-.004.002-.012.008-.013.008-.003.002-.002.002-.014.009-.014.009-.002.001-.015.01-.015.01-.017.012-.013.01-.002.001-.015.01-.012.01h-.002l-.003.003-.013.01-.012.008-.002.002-.004.003-.013.01-.01.007-.003.003-.005.003-.012.009-.008.007-.005.003-.006.005-.01.008-.008.006-.005.004-.008.006-.009.007-.006.005-.006.006-.01.007-.007.006-.005.004-.007.006-.01.009-.006.005-.005.003-.007.007-.012.01-.005.004-.003.003a3.126 3.126 0 0 0-1.099 2.37c0 1.752 1.473 3.18 3.286 3.18 1.343 0 2.5-.783 3.009-1.901l.002-.005.002-.005.013-.028.003-.007.012-.03.008-.018.008-.02.007-.017.008-.018.007-.02.007-.017v-.001l.012-.032.002-.005.011-.032.002-.005.01-.032.004-.009.004-.013.006-.018.006-.019.006-.019.006-.019.005-.018.006-.02.005-.018.006-.02.005-.018.005-.02.005-.018.004-.02.005-.018.005-.02.004-.019.004-.02.004-.019.004-.02.004-.018.008-.04.004-.02.003-.02.004-.021.003-.02.003-.021.002-.015.003-.02.003-.02.002-.02.003-.02.002-.02.002-.02.001-.01.001-.01.001-.01.001-.01.001-.01.001-.01.001-.012v-.008l.002-.012v-.008l.001-.013.001-.021.002-.021V5.42l.002-.021v-.021l.001-.024v-.02l.001-.021v-.02-.021c0-1.746-1.462-3.17-3.264-3.18l-.021-.001h-.037zm.4 1.875c.877 0 1.588.673 1.588 1.503 0 .83-.711 1.504-1.587 1.504S22.782 6.3 22.782 5.47s.71-1.503 1.587-1.503zM18.01 2.856c1.081 0 1.959.866 1.959 1.933 0 1.068-.878 1.934-1.959 1.934-1.08 0-1.958-.866-1.958-1.934 0-1.067.877-1.933 1.958-1.933z" fill="#AAA" fill-rule="evenodd"/></svg>
