<svg width="117" height="44" viewBox="0 0 117 44" xmlns="http://www.w3.org/2000/svg"><path d="M.5 39.27l.43-.475c.711.803 1.734 1.324 2.875 1.324 1.482 0 2.43-.804 2.43-1.964 0-1.219-.8-1.62-1.763-2.052l-1.482-.67c-.845-.37-1.971-.98-1.971-2.438 0-1.413 1.215-2.41 2.83-2.41 1.186 0 2.135.536 2.727 1.176l-.4.46a3.092 3.092 0 0 0-2.327-1.01c-1.289 0-2.149.683-2.149 1.754 0 1.13.979 1.562 1.69 1.889l1.482.654c1.082.491 2.045 1.1 2.045 2.603 0 1.502-1.23 2.632-3.127 2.632-1.423 0-2.52-.61-3.29-1.472zm7.751-2.26c0-2.335 1.512-3.762 3.098-3.762 1.69 0 2.727 1.204 2.727 3.301 0 .179 0 .357-.03.536H8.918c.03 1.8 1.082 3.093 2.683 3.093.77 0 1.378-.253 1.911-.64l.267.506c-.563.342-1.2.7-2.238.7-1.823 0-3.29-1.399-3.29-3.734zm.667-.43h4.535c0-1.83-.815-2.767-2.09-2.767-1.215 0-2.297 1.056-2.445 2.766zm6.595.43c0-2.394 1.512-3.762 3.246-3.762.978 0 1.615.431 2.09.877l-.386.461c-.46-.431-.993-.758-1.69-.758-1.452 0-2.578 1.294-2.578 3.182 0 1.874 1.023 3.153 2.579 3.153.756 0 1.408-.372 1.897-.818l.34.446c-.607.55-1.363.952-2.267.952-1.838 0-3.23-1.368-3.23-3.733zm7.262.997v-4.58h.652v4.49c0 1.517.49 2.231 1.63 2.231.845 0 1.453-.446 2.298-1.457v-5.265h.652v7.139h-.563l-.06-1.19h-.044c-.697.818-1.423 1.368-2.416 1.368-1.467 0-2.149-.892-2.149-2.736zm7.959 2.558v-7.139h.563l.06 1.324h.044c.474-.878 1.17-1.502 2.015-1.502.267 0 .475.03.712.149l-.148.594a1.545 1.545 0 0 0-.653-.119c-.637 0-1.393.491-1.941 1.83v4.863h-.652zm5.039-8.864a.574.574 0 0 1-.593-.58c0-.372.267-.595.593-.595.326 0 .593.223.593.595 0 .342-.267.58-.593.58zm-.341 8.864v-7.139h.652v7.139h-.652zm3.557-1.978V33.99h-1.112v-.505l1.127-.06.089-2.067h.563v2.067h2.06v.565h-2.06v4.655c0 .907.222 1.517 1.2 1.517.267 0 .638-.104.89-.223l.177.535c-.415.15-.86.268-1.156.268-1.378 0-1.778-.877-1.778-2.156zm3.601 4.506c.149.06.37.119.578.119.875 0 1.467-.803 1.823-1.889l.193-.625-2.92-7.272h.712l1.719 4.492c.222.594.504 1.368.77 1.992h.06c.222-.624.46-1.398.652-1.992l1.526-4.492h.667l-2.816 8.031c-.4 1.19-1.111 2.365-2.386 2.365-.267 0-.533-.06-.726-.15l.148-.58zm10.3-2.528v-9.8h.949l2.045 5.755.771 2.17h.06l.755-2.17 2.03-5.756h.964v9.8h-.667v-6.439c0-.803.044-1.829.089-2.647h-.06l-.755 2.156-2.105 5.86h-.593l-2.104-5.86-.77-2.156h-.06c.03.818.074 1.844.074 2.647v6.44h-.622zm9.738-3.555c0-2.394 1.482-3.762 3.186-3.762 1.72 0 3.201 1.368 3.201 3.762 0 2.365-1.482 3.733-3.201 3.733-1.704 0-3.186-1.368-3.186-3.733zm.681 0c0 1.874 1.067 3.153 2.505 3.153s2.52-1.279 2.52-3.153c0-1.888-1.082-3.182-2.52-3.182s-2.505 1.294-2.505 3.182zm7.84 3.555v-7.139h.564l.059 1.1h.044c.727-.728 1.468-1.278 2.446-1.278 1.467 0 2.149.892 2.149 2.736v4.58h-.652v-4.49c0-1.517-.475-2.231-1.63-2.231-.845 0-1.453.446-2.327 1.338v5.384h-.653zm8.226-8.864a.574.574 0 0 1-.593-.58c0-.372.267-.595.593-.595.326 0 .593.223.593.595 0 .342-.267.58-.593.58zm-.341 8.864v-7.139h.652v7.139h-.652zm3.557-1.978V33.99h-1.112v-.505l1.127-.06.089-2.067h.563v2.067h2.06v.565h-2.06v4.655c0 .907.222 1.517 1.2 1.517.267 0 .637-.104.89-.223l.177.535c-.415.15-.86.268-1.156.268-1.378 0-1.778-.877-1.778-2.156zm3.72-1.577c0-2.394 1.481-3.762 3.186-3.762 1.72 0 3.202 1.368 3.202 3.762 0 2.365-1.482 3.733-3.202 3.733-1.705 0-3.186-1.368-3.186-3.733zm.682 0c0 1.874 1.067 3.153 2.504 3.153 1.438 0 2.52-1.279 2.52-3.153 0-1.888-1.082-3.182-2.52-3.182-1.437 0-2.504 1.294-2.504 3.182zm7.84 3.555v-7.139h.563l.06 1.324h.044c.474-.878 1.17-1.502 2.015-1.502.267 0 .474.03.712.149l-.149.594a1.543 1.543 0 0 0-.652-.119c-.637 0-1.393.491-1.942 1.83v4.863h-.652zm5.039-8.864a.574.574 0 0 1-.593-.58c0-.372.266-.595.593-.595.325 0 .592.223.592.595 0 .342-.267.58-.592.58zm-.341 8.864v-7.139h.652v7.139h-.652zm3.393 0v-7.139h.563l.06 1.1h.045c.726-.728 1.467-1.278 2.445-1.278 1.467 0 2.149.892 2.149 2.736v4.58h-.652v-4.49c0-1.517-.474-2.231-1.63-2.231-.845 0-1.453.446-2.328 1.338v5.384h-.652zm7.914 1.398c0 .892.86 1.502 2.372 1.502 1.6 0 2.623-.908 2.623-1.8 0-.788-.578-1.085-1.645-1.085h-1.527c-.148 0-.518-.03-.888-.12-.653.447-.935.997-.935 1.503zm-.622.06c0-.626.4-1.25 1.052-1.726v-.06c-.355-.208-.622-.594-.622-1.145 0-.64.46-1.085.771-1.308v-.06a2.667 2.667 0 0 1-.89-1.963c0-1.472 1.112-2.513 2.505-2.513.386 0 .712.09.934.178h2.416v.55h-1.66c.46.402.785 1.042.785 1.8 0 1.457-1.082 2.513-2.475 2.513-.4 0-.86-.104-1.185-.297-.312.253-.579.55-.579 1.026 0 .52.297.937 1.364.937h1.526c1.601 0 2.342.506 2.342 1.636 0 1.234-1.319 2.409-3.364 2.409-1.793 0-2.92-.773-2.92-1.978zm2.816-4.254c.979 0 1.838-.803 1.838-2.008 0-1.204-.83-1.978-1.838-1.978-1.007 0-1.853.759-1.853 1.978 0 1.205.86 2.008 1.853 2.008zM24.62 26.892H3.18A2.686 2.686 0 0 1 .5 24.203V2.69C.5 1.205 1.7 0 3.18 0h21.44c1.48 0 2.68 1.205 2.68 2.69v21.513c0 1.484-1.2 2.69-2.68 2.69zM116.5 9.268l-4.14 11.517c-.773 2.165-1.589 4.663-4.319 4.663-.66 0-1.036-.089-1.41-.155l.056-.72c.08-.509.436-.84.907-.814.047.003.093.008.137.008 1.851 0 2.47-2.563 2.47-2.784 0-.243-.267-.817-.4-1.194l-3.81-10.521h1.444l.01.002c.439 0 .864.304 1.045.713l2.788 8.613h.045l2.848-8.618c.184-.407.607-.708 1.044-.708l.01-.002h1.275zm-61.297 0l-4.141 11.517c-.772 2.165-1.587 4.663-4.317 4.663-.66 0-1.037-.089-1.41-.155l.055-.72c.08-.509.436-.84.908-.814.045.003.092.008.138.008 1.85 0 2.467-2.563 2.467-2.784 0-.243-.264-.817-.397-1.194l-3.81-10.521h1.444l.01.002c.44 0 .863.304 1.045.713l2.787 8.613h.044l2.85-8.618c.184-.407.607-.708 1.043-.708l.011-.002h1.273zM20.687 3.486c-1.491.051-2.793.877-3.762 2.017-1.073 1.251-1.786 2.734-2.301 4.25-.92-.758-1.628-1.737-3.105-2.163-1.14-.33-2.338-.194-3.44.63-.522.391-.882.982-1.053 1.539-.442 1.444.465 2.73.878 3.191l.903.97c.185.19.633.686.414 1.397-.236.774-1.165 1.273-2.118.98-.426-.131-1.037-.45-.9-.897.056-.183.187-.322.258-.478.063-.137.095-.239.114-.3.174-.57-.064-1.311-.673-1.5-.568-.175-1.149-.036-1.374.697-.256.834.142 2.347 2.272 3.005 2.495.771 4.605-.593 4.905-2.37.188-1.114-.313-1.941-1.23-3.005l-.749-.83c-.453-.455-.608-1.23-.14-1.824.396-.502.96-.716 1.883-.464 1.348.366 1.948 1.305 2.95 2.062-.413 1.362-.684 2.729-.929 3.954l-.15.915c-.716 3.769-1.263 5.84-2.684 7.028-.287.204-.696.51-1.312.532-.324.01-.429-.214-.433-.311-.007-.228.184-.332.31-.434.19-.105.478-.277.458-.83-.02-.652-.56-1.217-1.338-1.191-.583.02-1.472.57-1.438 1.578.034 1.042 1.001 1.822 2.46 1.773.78-.027 2.521-.345 4.237-2.391 1.997-2.347 2.556-5.036 2.976-7.005l.469-2.6c.26.032.539.053.842.06 2.488.053 3.731-1.24 3.75-2.18.013-.57-.371-1.13-.91-1.116-.385.01-.869.268-.985.802-.114.524.791.998.084 1.459-.502.326-1.403.555-2.672.37l.23-1.28c.471-2.426 1.052-5.41 3.256-5.483.16-.008.747.006.76.397.005.13-.028.163-.18.46-.154.233-.213.432-.205.659.021.618.49 1.026 1.17 1.002.909-.03 1.17-.918 1.155-1.374-.037-1.073-1.163-1.75-2.653-1.701zm66.832 5.517c3.415 0 5.704 2.476 5.704 5.901 0 3.227-2.334 5.901-5.704 5.901-3.392 0-5.726-2.674-5.726-5.9 0-3.426 2.29-5.902 5.726-5.902zM38.415 20.782h-.013c-1.048 0-2.092-.288-3.109-.618l.062-.608c.06-.543.44-.954.905-.878.74.235 1.618.438 2.428.44 1.384-.002 3.391-.773 3.402-2.86-.017-2.001-1.9-2.685-3.617-3.514-1.751-.85-3.38-1.791-3.384-4.216.007-2.773 2.144-4.226 5.023-4.244.79 0 1.697.11 2.565.326l-.038.682c-.057.469-.454.841-.928.806-.008 0-.008.007-.013.007a6.652 6.652 0 0 0-1.484-.156l-.013.001c-1.325-.002-3.041.491-3.048 2.367.033 1.767 1.904 2.363 3.614 3.24 1.744.89 3.383 1.975 3.388 4.56-.01 3.35-2.515 4.642-5.74 4.665zm57.805-.242h-1.138V9.268h1.054l.01.002a.94.94 0 0 1 .94.944l.001.003v.843h.043c.618-1.283 2.115-2.057 3.68-2.057 2.907 0 4.207 1.813 4.207 4.841v5.797a.938.938 0 0 1-.934.899h-1.138v-5.834c0-2.631-.57-3.913-2.378-4.023-2.356 0-3.414 1.901-3.414 4.642v4.347a.937.937 0 0 1-.93.868h-.003zm-38.222 0h-1.121V9.268h.99l.01.002c.516 0 .931.417.939.933v.701h.044c.791-1.304 1.915-1.901 3.567-1.901 1.3 0 2.6.663 3.195 2.188.77-1.612 2.466-2.188 3.479-2.188 2.865 0 3.899 1.857 3.899 4.31v6.492a.938.938 0 0 1-.914.735H70.93v-6.718c0-1.393-.332-3.139-2.005-3.139-2.114 0-2.952 2.078-2.952 4.178v4.821a.937.937 0 0 1-.929.858h-1.14v-6.718c0-1.393-.332-3.139-2.005-3.139-2.115 0-2.952 2.078-2.952 4.178v4.708c-.003.009-.007.014-.007.028a.94.94 0 0 1-.94.943h-.002zm16.751-9.593h-.002a.938.938 0 0 1-.926-.803v-.876h2.644v-.895c0-2.741.705-4.532 3.766-4.532.527 0 .97.066 1.388.133l-.036.68c-.029.497-.44.901-.935.865-.005 0-.004.006-.008.006-.034-.002-.069-.004-.102-.004-1.783 0-2.003 1.15-2.003 2.675v1.072h2.974v.784a.938.938 0 0 1-.903.897h-2.07v8.776a.94.94 0 0 1-.927.815h-1.144V10.95H74.752l-.003-.002zm12.77 8.18c2.422 0 3.5-2.21 3.5-4.223 0-2.143-1.298-4.22-3.5-4.22-2.224 0-3.524 2.077-3.524 4.22 0 2.013 1.079 4.223 3.524 4.223z" fill="#AAA" fill-rule="evenodd"/></svg>
