<svg width="87" height="42" viewBox="0 0 87 42" xmlns="http://www.w3.org/2000/svg"><path d="M2.56 35.91c.084-4.689.171-11.078.093-14.187 0 0 1.49 7.324 1.83 14.96 1.251-1.296 2.984-.863 2.984-.863-3.438-.083-2.667 5.874-2.667 5.874l-1.536.289a16.938 16.938 0 0 1-.017-.289l-1.133-.13.148.436-.685-.063-.226-2.613.654 1.92C2.228 33.72-.25 32.127-.25 32.127c1.414.886 2.281 2.305 2.81 3.782zm3.93 3.882l-.874 2.011.41-.037.465-1.974zM.548 41.504l-.556-.946.83.91-.274.036zm82.107-8.926a4.224 4.224 0 0 1-1.958 1.83 6.28 6.28 0 0 1-2.676.59c-1.156 0-2.152-.207-2.99-.62a5.682 5.682 0 0 1-2.062-1.695c-.538-.715-.932-1.553-1.18-2.51a12.01 12.01 0 0 1-.375-3.041 9.86 9.86 0 0 1 .434-2.92 7.66 7.66 0 0 1 1.27-2.48 6.155 6.155 0 0 1 2.078-1.71c.827-.424 1.779-.635 2.855-.635 1.017 0 1.908.191 2.676.574.767.384 1.41 1.029 1.928 1.937h.06V19.81h4.036v14.643c0 .626-.085 1.341-.254 2.148-.17.807-.533 1.559-1.091 2.255-.558.695-1.366 1.285-2.422 1.77-1.057.483-2.471.725-4.245.725-.758 0-1.53-.096-2.317-.287a7.319 7.319 0 0 1-2.152-.893 5.317 5.317 0 0 1-1.615-1.558c-.429-.635-.672-1.397-.732-2.284h4.215c.199.807.587 1.366 1.166 1.68.578.312 1.245.468 2.003.468 1.196 0 2.067-.363 2.616-1.089.548-.726.812-1.644.792-2.753v-2.057h-.06zm-63.764 6.14l-1.384 2.633.572-.013.812-2.62zM7.387 40.566l-.61.752.342-.002.268-.75zm5.405-10.315c.228-7.953 1.232-18.707 4.72-24.75 6.005-10.405 9.745-2.854 9.745-2.854s-3.003-4.539-5.58-.492c-2.081 3.27-5.81 12.78-5.964 27.348 2.22-9.291 5.547-10.074 5.547-10.074-5.768 6.137-3.72 21.366-3.72 21.366l-2.914-.091c.005.234.004.363.004.363l-1.984-.46.198.71-.944-.146-.088-3.545.42 1.502C13.046 25.164 5.59 24.74 5.59 24.74c3.724-.431 5.914 2.223 7.202 5.511zm7.273 9.591l-.91.96.474.026.436-.986zm-9.555.652l-.687-1.326 1.07 1.302-.383.024zm39.588-5.042h-4.395L40.8 19.81h4.485l2.84 10.62h.06l2.57-10.62h4.126l2.631 10.59h.06l2.84-10.59h4.365l-4.873 15.642h-4.365l-2.75-10.499h-.06l-2.631 10.499zm15.396 0h4.245V19.81h-4.245v15.642zM44.747 17.843h-6.398v17.609h-4.694V17.843h-6.398V13.85h17.49v3.993zM80.68 31.398a3.326 3.326 0 0 0 1.136-.968c.299-.404.523-.863.673-1.377a5.78 5.78 0 0 0 .224-1.619c0-.645-.06-1.255-.18-1.83a4.617 4.617 0 0 0-.598-1.528 3.115 3.115 0 0 0-1.106-1.059c-.458-.262-1.036-.393-1.734-.393-.597 0-1.111.12-1.539.363-.429.242-.788.57-1.076.983a4.168 4.168 0 0 0-.628 1.422 7.094 7.094 0 0 0-.195 1.68c0 .564.055 1.124.165 1.678.109.555.3 1.054.568 1.498.27.444.623.807 1.062 1.09.437.282.986.423 1.643.423.599 0 1.127-.121 1.585-.363zM65.494 17.39h4.245v-3.54h-4.245v3.54z" fill="#AAA" fill-rule="evenodd"/></svg>
